<mxfile host="app.diagrams.net" modified="2024-04-22T17:47:57.807Z" agent="Mozilla/5.0 (Windows NT 10.0; Win64; x64) AppleWebKit/537.36 (KHTML, like Gecko) Chrome/124.0.0.0 Safari/537.36" etag="HzTk5p6AD_KaDJp4fGzO" version="21.7.0" type="device">
  <diagram name="Страница — 1" id="5eKUgAzHjUN0mBqDne7H">
    <mxGraphModel dx="1050" dy="1699" grid="1" gridSize="10" guides="1" tooltips="1" connect="1" arrows="1" fold="1" page="1" pageScale="1" pageWidth="827" pageHeight="1169" math="0" shadow="0">
      <root>
        <mxCell id="0" />
        <mxCell id="1" parent="0" />
        <mxCell id="vmJlWcJWUY4UKlD74RJQ-1" value="animals" style="rounded=0;whiteSpace=wrap;html=1;" vertex="1" parent="1">
          <mxGeometry x="310" y="-1140" width="200" height="30" as="geometry" />
        </mxCell>
        <mxCell id="vmJlWcJWUY4UKlD74RJQ-2" value="home_animals&amp;nbsp;" style="rounded=0;whiteSpace=wrap;html=1;" vertex="1" parent="1">
          <mxGeometry x="80" y="-1070" width="140" height="40" as="geometry" />
        </mxCell>
        <mxCell id="vmJlWcJWUY4UKlD74RJQ-3" value="pack_animals" style="rounded=0;whiteSpace=wrap;html=1;" vertex="1" parent="1">
          <mxGeometry x="580" y="-1070" width="140" height="40" as="geometry" />
        </mxCell>
        <mxCell id="vmJlWcJWUY4UKlD74RJQ-4" value="" style="endArrow=classic;html=1;rounded=0;entryX=0;entryY=1;entryDx=0;entryDy=0;" edge="1" parent="1" target="vmJlWcJWUY4UKlD74RJQ-1">
          <mxGeometry width="50" height="50" relative="1" as="geometry">
            <mxPoint x="220" y="-1070" as="sourcePoint" />
            <mxPoint x="270" y="-1120" as="targetPoint" />
            <Array as="points" />
          </mxGeometry>
        </mxCell>
        <mxCell id="vmJlWcJWUY4UKlD74RJQ-5" value="" style="endArrow=classic;html=1;rounded=0;entryX=1;entryY=1;entryDx=0;entryDy=0;" edge="1" parent="1" target="vmJlWcJWUY4UKlD74RJQ-1">
          <mxGeometry width="50" height="50" relative="1" as="geometry">
            <mxPoint x="580" y="-1070" as="sourcePoint" />
            <mxPoint x="630" y="-1120" as="targetPoint" />
          </mxGeometry>
        </mxCell>
        <mxCell id="vmJlWcJWUY4UKlD74RJQ-6" value="dogs" style="rounded=0;whiteSpace=wrap;html=1;" vertex="1" parent="1">
          <mxGeometry x="10" y="-970" width="80" height="30" as="geometry" />
        </mxCell>
        <mxCell id="vmJlWcJWUY4UKlD74RJQ-7" value="cats" style="rounded=0;whiteSpace=wrap;html=1;" vertex="1" parent="1">
          <mxGeometry x="100" y="-970" width="80" height="30" as="geometry" />
        </mxCell>
        <mxCell id="vmJlWcJWUY4UKlD74RJQ-8" value="hamsters" style="rounded=0;whiteSpace=wrap;html=1;" vertex="1" parent="1">
          <mxGeometry x="190" y="-970" width="80" height="30" as="geometry" />
        </mxCell>
        <mxCell id="vmJlWcJWUY4UKlD74RJQ-9" value="" style="endArrow=classic;html=1;rounded=0;entryX=1;entryY=1;entryDx=0;entryDy=0;" edge="1" parent="1" target="vmJlWcJWUY4UKlD74RJQ-2">
          <mxGeometry width="50" height="50" relative="1" as="geometry">
            <mxPoint x="230" y="-970" as="sourcePoint" />
            <mxPoint x="280" y="-1020" as="targetPoint" />
          </mxGeometry>
        </mxCell>
        <mxCell id="vmJlWcJWUY4UKlD74RJQ-10" value="" style="endArrow=classic;html=1;rounded=0;entryX=0;entryY=1;entryDx=0;entryDy=0;" edge="1" parent="1" target="vmJlWcJWUY4UKlD74RJQ-2">
          <mxGeometry width="50" height="50" relative="1" as="geometry">
            <mxPoint x="40" y="-970" as="sourcePoint" />
            <mxPoint x="90" y="-1020" as="targetPoint" />
          </mxGeometry>
        </mxCell>
        <mxCell id="vmJlWcJWUY4UKlD74RJQ-11" value="" style="endArrow=classic;html=1;rounded=0;entryX=0.5;entryY=1;entryDx=0;entryDy=0;" edge="1" parent="1" target="vmJlWcJWUY4UKlD74RJQ-2">
          <mxGeometry width="50" height="50" relative="1" as="geometry">
            <mxPoint x="140" y="-970" as="sourcePoint" />
            <mxPoint x="190" y="-1020" as="targetPoint" />
          </mxGeometry>
        </mxCell>
        <mxCell id="vmJlWcJWUY4UKlD74RJQ-12" value="horses" style="rounded=0;whiteSpace=wrap;html=1;" vertex="1" parent="1">
          <mxGeometry x="480" y="-970" width="70" height="30" as="geometry" />
        </mxCell>
        <mxCell id="vmJlWcJWUY4UKlD74RJQ-13" value="camels" style="rounded=0;whiteSpace=wrap;html=1;" vertex="1" parent="1">
          <mxGeometry x="590" y="-970" width="70" height="30" as="geometry" />
        </mxCell>
        <mxCell id="vmJlWcJWUY4UKlD74RJQ-14" value="donkeys" style="rounded=0;whiteSpace=wrap;html=1;" vertex="1" parent="1">
          <mxGeometry x="690" y="-970" width="70" height="30" as="geometry" />
        </mxCell>
        <mxCell id="vmJlWcJWUY4UKlD74RJQ-15" value="" style="endArrow=classic;html=1;rounded=0;entryX=0.86;entryY=1.035;entryDx=0;entryDy=0;entryPerimeter=0;" edge="1" parent="1" target="vmJlWcJWUY4UKlD74RJQ-3">
          <mxGeometry width="50" height="50" relative="1" as="geometry">
            <mxPoint x="720" y="-970" as="sourcePoint" />
            <mxPoint x="770" y="-1020" as="targetPoint" />
          </mxGeometry>
        </mxCell>
        <mxCell id="vmJlWcJWUY4UKlD74RJQ-16" value="" style="endArrow=classic;html=1;rounded=0;entryX=0.38;entryY=1.055;entryDx=0;entryDy=0;entryPerimeter=0;" edge="1" parent="1" target="vmJlWcJWUY4UKlD74RJQ-3">
          <mxGeometry width="50" height="50" relative="1" as="geometry">
            <mxPoint x="620" y="-970" as="sourcePoint" />
            <mxPoint x="670" y="-1020" as="targetPoint" />
          </mxGeometry>
        </mxCell>
        <mxCell id="vmJlWcJWUY4UKlD74RJQ-17" value="" style="endArrow=classic;html=1;rounded=0;entryX=0;entryY=1;entryDx=0;entryDy=0;" edge="1" parent="1" target="vmJlWcJWUY4UKlD74RJQ-3">
          <mxGeometry width="50" height="50" relative="1" as="geometry">
            <mxPoint x="550" y="-970" as="sourcePoint" />
            <mxPoint x="600" y="-1020" as="targetPoint" />
          </mxGeometry>
        </mxCell>
      </root>
    </mxGraphModel>
  </diagram>
</mxfile>
